<?xml version="1.0" encoding="UTF-8" standalone="no"?>
<svg
   xmlns:dc="http://purl.org/dc/elements/1.1/"
   xmlns:cc="http://creativecommons.org/ns#"
   xmlns:rdf="http://www.w3.org/1999/02/22-rdf-syntax-ns#"
   xmlns:svg="http://www.w3.org/2000/svg"
   xmlns="http://www.w3.org/2000/svg"
   xmlns:sodipodi="http://sodipodi.sourceforge.net/DTD/sodipodi-0.dtd"
   xmlns:inkscape="http://www.inkscape.org/namespaces/inkscape"
   version="1.1"
   id="svg2"
   height="220.00002"
   width="1428.2681"
   sodipodi:docname="logo.svg"
   inkscape:version="1.0.1 (3bc2e813f5, 2020-09-07)">
  <sodipodi:namedview
     pagecolor="#ffffff"
     bordercolor="#666666"
     borderopacity="1"
     objecttolerance="10"
     gridtolerance="10"
     guidetolerance="10"
     inkscape:pageopacity="0"
     inkscape:pageshadow="2"
     inkscape:window-width="1912"
     inkscape:window-height="939"
     id="namedview18"
     showgrid="false"
     inkscape:zoom="0.93679893"
     inkscape:cx="714.13403"
     inkscape:cy="110.00001"
     inkscape:window-x="0"
     inkscape:window-y="0"
     inkscape:window-maximized="0"
     inkscape:current-layer="text3726" />
  <defs
     id="defs4" />
  <metadata
     id="metadata7">
    <rdf:RDF>
      <cc:Work
         rdf:about="">
        <dc:format>image/svg+xml</dc:format>
        <dc:type
           rdf:resource="http://purl.org/dc/dcmitype/StillImage" />
        <dc:title />
      </cc:Work>
    </rdf:RDF>
  </metadata>
  <g
     transform="translate(0,-832.36218)"
     id="layer1">
    <g
       style="fill:#060606;fill-opacity:1"
       id="g62">
      <rect
         style="fill:#060606;fill-opacity:1;stroke:none"
         id="rect3777"
         width="55"
         height="175"
         x="75"
         y="842.36218"
         rx="5"
         ry="5" />
      <rect
         style="fill:#060606;fill-opacity:1;stroke:none"
         id="rect3781"
         width="55"
         height="120"
         x="140"
         y="897.36218"
         rx="5"
         ry="5" />
      <rect
         style="fill:#060606;fill-opacity:1;stroke:none"
         id="rect3783"
         width="55"
         height="100"
         x="10"
         y="917.36218"
         rx="5"
         ry="5" />
      <rect
         style="fill:#060606;fill-opacity:1;stroke:none"
         id="rect3787"
         width="185"
         height="20"
         x="10"
         y="1022.3622"
         rx="5"
         ry="5" />
    </g>
    <g
       aria-label="OpenADMS UI"
       id="text3726"
       style="font-style:normal;font-weight:normal;font-size:40px;line-height:1.25;font-family:sans-serif;letter-spacing:0px;word-spacing:0px;fill:#060606;fill-opacity:1;stroke:none">
      <path
         d="m 273.98,946.60219 q 0,9.18 2.16,16.56 2.34,7.38 6.48,12.78 4.32,5.22 10.44,8.1 6.12,2.88 14.04,2.88 7.74,0 13.86,-2.88 6.3,-2.88 10.44,-8.1 4.32,-5.4 6.48,-12.78 2.34,-7.38 2.34,-16.56 0,-9.18 -2.34,-16.56 -2.16,-7.56 -6.48,-12.78 -4.14,-5.4 -10.44,-8.28 -6.12,-2.88 -13.86,-2.88 -7.92,0 -14.04,3.06 -6.12,2.88 -10.44,8.28 -4.14,5.22 -6.48,12.78 -2.16,7.38 -2.16,16.38 z m 95.22,0 q 0,16.02 -4.86,28.26 -4.68,12.06 -12.96,20.34 -8.28,8.10001 -19.8,12.24001 -11.34,4.14 -24.48,4.14 -12.78,0 -24.12,-4.14 -11.34,-4.14 -19.8,-12.24001 -8.46,-8.28 -13.32,-20.34 -4.86,-12.24 -4.86,-28.26 0,-16.02 5.04,-28.08 5.04,-12.24 13.5,-20.52 8.64,-8.28 19.8,-12.42 11.34,-4.14 23.76,-4.14 12.78,0 24.12,4.14 11.34,4.14 19.8,12.42 8.46,8.28 13.32,20.52 4.86,12.06 4.86,28.08 z"
         style="font-style:normal;font-variant:normal;font-weight:bold;font-stretch:normal;font-size:180px;font-family:Ubuntu;-inkscape-font-specification:'Ubuntu Bold';fill:#060606;fill-opacity:1"
         id="path869" />
      <path
         d="m 451.29125,962.44219 q 0,-12.42 -5.58,-19.8 -5.58,-7.56 -16.56,-7.56 -3.6,0 -6.66,0.36 -3.06,0.18 -5.04,0.54 v 48.42 q 2.52,1.62 6.48,2.7 4.14,1.08 8.28,1.08 19.08,0 19.08,-25.74 z m 27.36,-0.72 q 0,10.98 -2.7,19.98 -2.7,9 -7.92,15.48 -5.22,6.48001 -12.96,10.08001 -7.74,3.6 -17.82,3.6 -5.58,0 -10.44,-1.08 -4.86,-1.08 -9.36,-3.06 v 35.64 h -26.82 V 917.62219 q 3.6,-1.08 8.28,-1.98 4.68,-1.08 9.72,-1.8 5.22,-0.72 10.44,-1.08 5.4,-0.54 10.26,-0.54 11.7,0 20.88,3.6 9.18,3.42 15.48,9.9 6.3,6.3 9.54,15.48 3.42,9.18 3.42,20.52 z"
         style="font-style:normal;font-variant:normal;font-weight:bold;font-stretch:normal;font-size:180px;font-family:Ubuntu;-inkscape-font-specification:'Ubuntu Bold';fill:#060606;fill-opacity:1"
         id="path871" />
      <path
         d="m 494.76406,962.44219 q 0,-12.6 3.78,-21.96 3.96,-9.54 10.26,-15.84 6.3,-6.3 14.4,-9.54 8.28,-3.24 16.92,-3.24 20.16,0 31.86,12.42 11.7,12.24 11.7,36.18 0,2.34 -0.18,5.22 -0.18,2.7 -0.36,4.86 h -60.84 q 0.9,8.28 7.74,13.14 6.84,4.86 18.36,4.86 7.38,0 14.4,-1.26 7.2,-1.44 11.7,-3.42 l 3.6,21.78001 q -2.16,1.08 -5.76,2.16 -3.6,1.08 -8.1,1.8 -4.32,0.9 -9.36,1.44 -5.04,0.54 -10.08,0.54 -12.78,0 -22.32,-3.78 -9.36,-3.78 -15.66,-10.26001 -6.12,-6.66 -9.18,-15.66 -2.88,-9 -2.88,-19.44 z m 63,-10.26 q -0.18,-3.42 -1.26,-6.66 -0.9,-3.24 -3.06,-5.76 -1.98,-2.52 -5.22,-4.14 -3.06,-1.62 -7.74,-1.62 -4.5,0 -7.74,1.62 -3.24,1.44 -5.4,3.96 -2.16,2.52 -3.42,5.94 -1.08,3.24 -1.62,6.66 z"
         style="font-style:normal;font-variant:normal;font-weight:bold;font-stretch:normal;font-size:180px;font-family:Ubuntu;-inkscape-font-specification:'Ubuntu Bold';fill:#060606;fill-opacity:1"
         id="path873" />
      <path
         d="m 604.38125,917.62219 q 6.84,-1.98 17.64,-3.6 10.8,-1.8 22.68,-1.8 12.06,0 19.98,3.24 8.1,3.06 12.78,8.82 4.68,5.76 6.66,13.68 1.98,7.92 1.98,17.64 v 53.46001 h -26.82 v -50.22001 q 0,-12.96 -3.42,-18.36 -3.42,-5.4 -12.78,-5.4 -2.88,0 -6.12,0.36 -3.24,0.18 -5.76,0.54 v 73.08001 h -26.82 z"
         style="font-style:normal;font-variant:normal;font-weight:bold;font-stretch:normal;font-size:180px;font-family:Ubuntu;-inkscape-font-specification:'Ubuntu Bold';fill:#060606;fill-opacity:1"
         id="path875" />
      <path
         d="m 795.87312,1009.0622 q -1.97999,-6.48 -4.5,-13.32001 -2.33999,-6.84 -4.68,-13.68 h -48.6 q -2.34,6.84 -4.86,13.68 -2.33999,6.84001 -4.31999,13.32001 h -29.16001 q 7.02001,-20.16001 13.32,-37.26001 6.3,-17.1 12.24001,-32.22 6.12,-15.12 11.87999,-28.62 5.94,-13.68 12.24001,-26.64 h 26.81999 q 6.12,12.96 12.06001,26.64 5.93999,13.5 11.87999,28.62 6.12001,15.12 12.42,32.22 6.30001,17.1 13.32001,37.26001 z m -33.66,-96.48001 q -0.89999,2.7 -2.7,7.38 -1.8,4.68 -4.14,10.8 -2.33999,6.12 -5.21999,13.5 -2.70001,7.38 -5.58001,15.48 h 35.46001 q -2.88,-8.1 -5.58001,-15.48 -2.7,-7.38 -5.22,-13.5 -2.33999,-6.12 -4.14,-10.8 -1.79999,-4.68 -2.88,-7.38 z"
         style="font-style:normal;font-variant:normal;font-weight:bold;font-stretch:normal;font-size:180px;font-family:Ubuntu;-inkscape-font-specification:'Ubuntu Bold';fill:#060606;fill-opacity:1"
         id="path877" />
      <path
         d="m 870.15969,986.20219 q 1.98,0.18 4.5,0.36 2.7,0 6.3,0 21.06,0 31.14,-10.62 10.26,-10.62 10.26,-29.34 0,-19.62 -9.72,-29.7 -9.72,-10.08 -30.78,-10.08 -2.88,0 -5.94,0.18 -3.06,0 -5.76,0.36 z m 81.18,-39.6 q 0,16.2 -5.04,28.26 -5.04,12.06 -14.4,19.98 -9.18,7.92001 -22.5,11.88001 -13.32,3.96 -29.88,3.96 -7.56,0 -17.64,-0.72 -10.08,-0.54 -19.8,-2.52 V 885.94219 q 9.72,-1.8 20.16,-2.34 10.62,-0.72 18.18,-0.72 16.02,0 28.98,3.6 13.14,3.6 22.5,11.34 9.36,7.74 14.4,19.8 5.04,12.06 5.04,28.98 z"
         style="font-style:normal;font-variant:normal;font-weight:bold;font-stretch:normal;font-size:180px;font-family:Ubuntu;-inkscape-font-specification:'Ubuntu Bold';fill:#060606;fill-opacity:1"
         id="path879" />
      <path
         d="m 1007.7387,884.32219 q 3.24,5.94 7.38,14.76 4.3201,8.64 8.8201,18.9 4.68,10.08 9.18,20.7 4.5,10.62 8.46,19.98 3.96,-9.36 8.46,-19.98 4.5,-10.62 9,-20.7 4.68,-10.26 8.82,-18.9 4.32,-8.82 7.56,-14.76 h 25.56 q 1.8,12.42 3.24,27.9 1.6199,15.3 2.7,32.04 1.26,16.56 2.16,33.3 1.08,16.74 1.8,31.50001 h -27.36 q -0.54,-18.18001 -1.44,-39.60001 -0.9,-21.42 -2.7,-43.2 -3.24,7.56 -7.2,16.74 -3.96,9.18 -7.92,18.36 -3.78,9.18 -7.38,17.64 -3.6,8.28 -6.12,14.22 h -19.62 q -2.52,-5.94 -6.12,-14.22 -3.6,-8.46 -7.5601,-17.64 -3.7799,-9.18 -7.74,-18.36 -3.96,-9.18 -7.2,-16.74 -1.8,21.78 -2.69995,43.2 -0.9,21.42 -1.44,39.60001 h -27.36 q 0.72,-14.76001 1.62,-31.50001 1.08,-16.74 2.16,-33.3 1.26,-16.74 2.7,-32.04 1.62,-15.48 3.42,-27.9 z"
         style="font-style:normal;font-variant:normal;font-weight:bold;font-stretch:normal;font-size:180px;font-family:Ubuntu;-inkscape-font-specification:'Ubuntu Bold';fill:#060606;fill-opacity:1"
         id="path881" />
      <path
         d="m 1170.0059,987.64219 q 5.94,0 9.72,-0.9 3.96,-1.08 6.3,-2.7 2.34,-1.8 3.24,-4.14 0.9,-2.34 0.9,-5.22 0,-6.12 -5.76,-10.08 -5.76,-4.14 -19.8,-8.82 -6.12,-2.16 -12.24,-4.86 -6.12,-2.88 -10.98,-7.02 -4.86,-4.32 -7.92,-10.26 -3.06,-6.12 -3.06,-14.76 0,-8.64 3.24,-15.48 3.24,-7.02 9.18,-11.88 5.94,-4.86 14.4,-7.38 8.46,-2.7 19.08,-2.7 12.6,0 21.78,2.7 9.18,2.7 15.12,5.94 l -8.1,22.14 q -5.22,-2.7 -11.7,-4.68 -6.3,-2.16 -15.3,-2.16 -10.08,0 -14.58,2.88 -4.32,2.7 -4.32,8.46 0,3.42 1.62,5.76 1.62,2.34 4.5,4.32 3.06,1.8 6.84,3.42 3.96,1.44 8.64,3.06 9.72,3.6 16.92,7.2 7.2,3.42 11.88,8.1 4.86,4.68 7.2,10.98 2.34,6.3 2.34,15.3 0,17.46 -12.24,27.18001 -12.24,9.54 -36.9,9.54 -8.28,0 -14.94,-1.08 -6.66,-0.9 -11.88,-2.34 -5.04,-1.44 -8.82,-3.06 -3.6,-1.62 -6.12,-3.06 l 7.92,-22.32001 q 5.58,3.06 13.68,5.58 8.28,2.34 20.16,2.34 z"
         style="font-style:normal;font-variant:normal;font-weight:bold;font-stretch:normal;font-size:180px;font-family:Ubuntu;-inkscape-font-specification:'Ubuntu Bold';fill:#060606;fill-opacity:1"
         id="path883" />
      <path
         d="m 1328.6844,1011.7622 q -12.42,0 -21.24,-3.78 -8.64,-3.78 -14.04,-10.44001 -5.4,-6.66 -7.92,-15.48 -2.34,-9 -2.34,-19.26 v -78.48 h 12.24 v 76.86 q 0,10.26 2.34,17.82 2.52,7.38 6.84,12.24 4.32,4.86 10.44,7.2 6.12,2.34001 13.68,2.34001 7.56,0 13.68,-2.34001 6.12,-2.34 10.44,-7.2 4.32,-4.86 6.66,-12.24 2.52,-7.56 2.52,-17.82 v -76.86 h 12.24 v 78.48 q 0,10.26 -2.52,19.26 -2.34,8.82 -7.74,15.48 -5.4,6.66001 -14.22,10.44001 -8.64,3.78 -21.06,3.78 z"
         style="font-style:normal;font-variant:normal;font-weight:300;font-stretch:normal;font-family:Ubuntu;-inkscape-font-specification:'Ubuntu Light';fill:#060606;fill-opacity:1"
         id="path885" />
      <path
         d="m 1406.0281,884.32219 h 12.24 v 124.74001 h -12.24 z"
         style="font-style:normal;font-variant:normal;font-weight:300;font-stretch:normal;font-family:Ubuntu;-inkscape-font-specification:'Ubuntu Light';fill:#060606;fill-opacity:1"
         id="path887" />
    </g>
    <flowRoot
       style="font-style:normal;font-weight:normal;font-size:40px;line-height:1.25;font-family:sans-serif;letter-spacing:0px;word-spacing:0px;fill:#060606;fill-opacity:1;stroke:none;"
       id="flowRoot3732"
       xml:space="preserve"><flowRegion
         style="fill:#060606;fill-opacity:1;"
         id="flowRegion3734"><rect
           style="fill:#060606;fill-opacity:1;"
           y="268.57144"
           x="194.28572"
           height="302.85715"
           width="1208.5714"
           id="rect3736" /></flowRegion><flowPara
         id="flowPara3738" /></flowRoot>
  </g>
</svg>
